<?xml version="1.0" encoding="iso-8859-1"?>
<!-- Generator: Adobe Illustrator 16.0.0, SVG Export Plug-In . SVG Version: 6.00 Build 0)  -->
<!DOCTYPE svg PUBLIC "-//W3C//DTD SVG 1.1//EN" "http://www.w3.org/Graphics/SVG/1.1/DTD/svg11.dtd">
<svg version="1.1" id="Capa_1" xmlns="http://www.w3.org/2000/svg" xmlns:xlink="http://www.w3.org/1999/xlink" x="0px" y="0px"
	 width="109.335px" height="109.335px" viewBox="0 0 109.335 109.335" fill="#fff"
	 xml:space="preserve">
<g>
	<g>
		<path d="M54.667,0C24.525,0,0.002,24.523,0.002,54.666c0,30.146,24.523,54.669,54.666,54.669
			c30.142,0,54.666-24.523,54.666-54.669C109.333,24.523,84.81,0,54.667,0z M54.667,3.01c24.188,0,44.495,16.736,50.08,39.227H4.587
			C10.174,19.75,30.475,3.01,54.667,3.01z M86.979,44.816v18.716h-1.574V44.816H86.979z M80.525,61.489
			c-0.157,0.452-0.356,0.832-0.603,1.14c-0.239,0.305-0.52,0.551-0.835,0.732c-0.314,0.185-0.657,0.312-1.026,0.38
			c-0.363,0.072-0.739,0.103-1.119,0.103c-1.229,0-2.122-0.353-2.693-1.061c-0.568-0.709-0.849-1.67-0.849-2.868
			c0-0.947,0.223-1.752,0.653-2.43c0.438-0.667,1.157-1.143,2.146-1.424l2.967-0.838c0.28-0.072,0.51-0.15,0.681-0.236
			c0.175-0.086,0.312-0.209,0.404-0.362c0.096-0.154,0.164-0.363,0.201-0.616c0.034-0.254,0.055-0.582,0.055-0.985
			c0-0.89-0.222-1.517-0.66-1.871c-0.438-0.361-1.026-0.538-1.759-0.538c-0.944,0-1.622,0.271-2.047,0.81
			c-0.414,0.541-0.623,1.321-0.623,2.334h-1.574c0-1.432,0.346-2.536,1.034-3.301c0.691-0.771,1.783-1.153,3.269-1.153
			c1.43,0,2.439,0.341,3.038,1.02c0.596,0.681,0.89,1.574,0.89,2.678v8.233c0,0.767,0.274,1.149,0.812,1.149h0.444v1.153
			c-0.294,0.106-0.537,0.157-0.732,0.157c-0.608,0-1.098-0.105-1.464-0.328s-0.555-0.681-0.555-1.399v-0.473h-0.055V61.489z
			 M68.466,51.786c0.305-0.789,0.756-1.395,1.358-1.833c0.603-0.435,1.321-0.655,2.163-0.655c0.171,0,0.359,0.026,0.544,0.077v1.571
			c-0.257-0.053-0.51-0.077-0.76-0.077c-0.438,0-0.855,0.077-1.26,0.234c-0.4,0.158-0.76,0.404-1.074,0.736
			c-0.314,0.334-0.562,0.742-0.746,1.232c-0.185,0.492-0.273,1.078-0.273,1.759v8.699h-1.574V49.611h1.574v2.171h0.048V51.786z
			 M62.333,61.592c-0.4,0.787-0.91,1.358-1.533,1.718c-0.623,0.356-1.292,0.534-2.031,0.534c-1.062,0-1.925-0.294-2.58-0.88
			c-0.655-0.585-0.984-1.536-0.984-2.844V49.611h1.573v9.801c0,1.153,0.193,1.968,0.575,2.427c0.39,0.458,0.999,0.691,1.839,0.691
			c0.89,0,1.615-0.318,2.184-0.959c0.568-0.637,0.855-1.506,0.855-2.604v-9.356h1.574v13.918h-1.417v-1.94h-0.055V61.592z
			 M51.406,62.064c0.245,0.212,0.623,0.314,1.127,0.314c0.294,0,0.618-0.051,0.963-0.157v1.311
			c-0.191,0.106-0.553,0.158-1.097,0.158c-1.068,0-1.826-0.175-2.271-0.524c-0.445-0.346-0.662-0.985-0.662-1.909V50.929h-1.917
			v-1.311h1.917V45.76h1.567v3.858h2.462v1.311h-2.462v9.986C51.035,61.469,51.156,61.853,51.406,62.064z M44.011,61.489
			c-0.157,0.452-0.355,0.832-0.602,1.14c-0.245,0.305-0.525,0.551-0.84,0.732c-0.316,0.185-0.652,0.312-1.02,0.38
			c-0.368,0.072-0.748,0.103-1.129,0.103c-1.227,0-2.117-0.353-2.685-1.061c-0.566-0.709-0.854-1.67-0.854-2.868
			c0-0.947,0.221-1.752,0.659-2.43c0.438-0.667,1.15-1.143,2.147-1.424l2.965-0.838c0.28-0.072,0.508-0.15,0.676-0.236
			c0.18-0.086,0.315-0.209,0.411-0.362c0.094-0.154,0.158-0.363,0.192-0.616c0.042-0.254,0.056-0.582,0.056-0.985
			c0-0.89-0.221-1.517-0.659-1.871c-0.438-0.361-1.02-0.538-1.752-0.538c-0.946,0-1.629,0.271-2.047,0.81
			c-0.417,0.541-0.631,1.321-0.631,2.334h-1.573c0-1.432,0.351-2.536,1.041-3.301c0.683-0.771,1.772-1.153,3.259-1.153
			c1.436,0,2.449,0.341,3.044,1.02c0.59,0.681,0.891,1.574,0.891,2.678v8.233c0,0.767,0.265,1.149,0.813,1.149h0.445v1.153
			c-0.301,0.106-0.539,0.157-0.739,0.157c-0.611,0-1.097-0.105-1.465-0.328c-0.368-0.223-0.547-0.681-0.547-1.399v-0.473h-0.057
			V61.489z M34.631,44.816v18.716h-2.253l-7.159-16.305h-0.057v16.305h-1.675V44.816h2.261l7.152,16.304h0.057V44.816H34.631z
			 M54.667,106.319c-24.46,0-44.958-17.107-50.271-39.971h100.542C99.621,89.212,79.133,106.319,54.667,106.319z"/>
		<path d="M36.306,35.702h1.472V18.331H36.65c-0.05,0.919-0.411,1.641-1.09,2.169c-0.678,0.532-1.752,0.806-3.232,0.823v1.08h3.978
			V35.702z"/>
		<path d="M41.958,33.495c0.358,0.785,0.855,1.395,1.5,1.836c0.639,0.445,1.444,0.662,2.421,0.662c0.986,0,1.795-0.221,2.428-0.662
			c0.638-0.441,1.136-1.054,1.5-1.836c0.357-0.786,0.609-1.718,0.746-2.798c0.137-1.082,0.214-2.258,0.214-3.532
			c0-1.274-0.074-2.454-0.214-3.535c-0.137-1.08-0.389-2.009-0.746-2.797c-0.365-0.786-0.862-1.395-1.5-1.836
			c-0.637-0.441-1.439-0.666-2.428-0.666c-0.977,0-1.787,0.221-2.421,0.662c-0.645,0.441-1.143,1.054-1.5,1.836
			c-0.364,0.789-0.609,1.718-0.746,2.798c-0.144,1.081-0.214,2.258-0.214,3.535c0,1.271,0.07,2.451,0.214,3.532
			C41.352,31.773,41.597,32.709,41.958,33.495z M42.753,23.63c0.123-0.965,0.316-1.749,0.582-2.356
			c0.26-0.606,0.603-1.041,1.027-1.311c0.424-0.269,0.932-0.406,1.518-0.406s1.097,0.137,1.528,0.406
			c0.424,0.27,0.767,0.705,1.027,1.311c0.26,0.607,0.452,1.388,0.575,2.356c0.124,0.967,0.185,2.141,0.185,3.535
			c0,1.388-0.062,2.565-0.185,3.532c-0.123,0.968-0.314,1.749-0.575,2.356c-0.26,0.606-0.603,1.041-1.027,1.311
			c-0.431,0.269-0.939,0.405-1.528,0.405s-1.097-0.137-1.521-0.405c-0.425-0.271-0.767-0.705-1.027-1.311
			c-0.267-0.607-0.458-1.388-0.582-2.356c-0.115-0.963-0.178-2.141-0.178-3.532C42.575,25.774,42.639,24.597,42.753,23.63z"/>
		<path d="M53.733,33.495c0.357,0.785,0.854,1.395,1.499,1.836c0.638,0.445,1.444,0.662,2.421,0.662
			c0.985,0,1.795-0.221,2.428-0.662c0.637-0.441,1.137-1.054,1.499-1.836c0.359-0.786,0.609-1.718,0.746-2.798
			c0.137-1.082,0.216-2.258,0.216-3.532c0-1.274-0.072-2.454-0.216-3.535c-0.137-1.08-0.387-2.009-0.746-2.797
			c-0.362-0.786-0.862-1.395-1.499-1.836s-1.442-0.666-2.428-0.666c-0.977,0-1.786,0.221-2.421,0.662
			c-0.646,0.441-1.142,1.054-1.499,1.836c-0.365,0.789-0.611,1.718-0.748,2.798c-0.144,1.081-0.214,2.258-0.214,3.535
			c0,1.271,0.07,2.451,0.214,3.532C53.123,31.773,53.369,32.709,53.733,33.495z M54.524,23.63c0.123-0.965,0.316-1.749,0.582-2.356
			c0.26-0.606,0.604-1.041,1.026-1.311c0.425-0.269,0.933-0.406,1.521-0.406s1.097,0.137,1.528,0.406
			c0.424,0.27,0.77,0.705,1.026,1.311c0.26,0.607,0.455,1.388,0.575,2.356c0.123,0.967,0.188,2.141,0.188,3.535
			c0,1.388-0.064,2.565-0.188,3.532c-0.12,0.968-0.315,1.749-0.575,2.356c-0.257,0.606-0.603,1.041-1.026,1.311
			c-0.432,0.269-0.939,0.405-1.528,0.405s-1.097-0.137-1.521-0.405c-0.422-0.271-0.767-0.705-1.026-1.311
			c-0.265-0.607-0.458-1.388-0.582-2.356c-0.115-0.963-0.178-2.141-0.178-3.532S54.409,24.597,54.524,23.63z"/>
		<path d="M65.652,26.426c0.261,0.348,0.582,0.585,0.972,0.726c0.384,0.141,0.822,0.21,1.308,0.21c0.493,0,0.931-0.07,1.314-0.21
			c0.383-0.14,0.708-0.378,0.972-0.726c0.26-0.344,0.462-0.802,0.599-1.384c0.144-0.582,0.216-1.314,0.216-2.197
			s-0.072-1.615-0.216-2.197c-0.137-0.578-0.339-1.042-0.599-1.388c-0.264-0.34-0.589-0.578-0.972-0.718
			c-0.384-0.141-0.821-0.21-1.314-0.21c-0.485,0-0.924,0.07-1.308,0.21c-0.39,0.14-0.711,0.378-0.972,0.722
			c-0.26,0.345-0.465,0.806-0.603,1.388c-0.137,0.582-0.205,1.314-0.205,2.197s0.068,1.615,0.205,2.197
			C65.188,25.624,65.393,26.082,65.652,26.426z M66.659,20.16c0.328-0.501,0.752-0.75,1.272-0.75c0.541,0,0.972,0.248,1.287,0.75
			c0.321,0.501,0.479,1.395,0.479,2.688c0,1.307-0.157,2.208-0.479,2.698c-0.315,0.495-0.746,0.736-1.287,0.736
			c-0.26,0-0.499-0.057-0.719-0.171c-0.226-0.113-0.41-0.301-0.567-0.565c-0.158-0.26-0.274-0.612-0.356-1.056
			c-0.085-0.441-0.12-0.991-0.12-1.643C66.169,21.555,66.33,20.661,66.659,20.16z"/>
		<path d="M74.585,27.901c-0.264,0.344-0.466,0.802-0.603,1.388c-0.144,0.579-0.212,1.311-0.212,2.194s0.068,1.615,0.212,2.197
			c0.137,0.579,0.339,1.042,0.603,1.388c0.26,0.344,0.581,0.585,0.965,0.722c0.383,0.14,0.821,0.21,1.313,0.21
			c0.493,0,0.925-0.07,1.314-0.21c0.384-0.137,0.705-0.378,0.965-0.722c0.261-0.346,0.466-0.806,0.603-1.388
			s0.205-1.314,0.205-2.197s-0.068-1.615-0.205-2.194c-0.137-0.582-0.342-1.043-0.603-1.388c-0.26-0.347-0.581-0.585-0.965-0.726
			c-0.39-0.137-0.821-0.21-1.314-0.21c-0.492,0-0.931,0.074-1.313,0.21C75.166,27.316,74.845,27.554,74.585,27.901z M76.863,28.048
			c0.541,0,0.966,0.247,1.287,0.746c0.321,0.501,0.479,1.396,0.479,2.688c0,1.307-0.158,2.207-0.479,2.702
			c-0.321,0.491-0.746,0.736-1.287,0.736c-0.26,0-0.506-0.059-0.726-0.175c-0.219-0.113-0.41-0.301-0.561-0.561
			c-0.158-0.262-0.274-0.616-0.356-1.058s-0.123-0.989-0.123-1.644c0-1.289,0.164-2.187,0.486-2.688
			C75.912,28.294,76.337,28.048,76.863,28.048z"/>
		<polygon points="69.235,35.996 76.768,18.331 75.536,18.331 68.007,35.996 		"/>
		<path d="M43.265,56.247c-0.364,0.137-0.696,0.253-1.013,0.342l-1.308,0.342c-0.787,0.213-1.384,0.534-1.786,0.966
			c-0.395,0.438-0.602,1.077-0.602,1.916c0,0.835,0.198,1.506,0.588,1.988c0.396,0.489,0.933,0.735,1.615,0.735
			c0.957,0,1.738-0.342,2.334-1.022c0.596-0.682,0.89-1.649,0.89-2.905v-2.94h-0.057C43.847,55.915,43.623,56.106,43.265,56.247z"/>
		<path d="M79.779,56.247c-0.356,0.137-0.691,0.253-1.006,0.342l-1.314,0.342c-0.787,0.213-1.376,0.534-1.779,0.966
			c-0.404,0.438-0.603,1.077-0.603,1.916c0,0.835,0.191,1.506,0.589,1.988c0.39,0.489,0.931,0.735,1.608,0.735
			c0.965,0,1.745-0.342,2.334-1.022c0.596-0.682,0.896-1.649,0.896-2.905v-2.94H80.45C80.361,55.915,80.142,56.106,79.779,56.247z"
			/>
		<path d="M26.907,77.221c-0.28-0.312-0.638-0.551-1.067-0.718c-0.431-0.168-0.946-0.254-1.547-0.254h-3.385v12.525h1.128v-5.438
			h1.875c0.712,0,1.314-0.096,1.809-0.281c0.495-0.185,0.883-0.444,1.184-0.767c0.294-0.321,0.512-0.698,0.646-1.129
			c0.123-0.435,0.193-0.887,0.193-1.369c0-0.526-0.07-1.006-0.207-1.444C27.395,77.902,27.194,77.532,26.907,77.221z M26.402,81.013
			c-0.144,0.332-0.329,0.603-0.568,0.805c-0.238,0.205-0.525,0.353-0.854,0.438c-0.324,0.086-0.669,0.13-1.034,0.13h-1.911V77.19
			h1.911c0.876,0,1.538,0.202,1.99,0.589c0.452,0.396,0.676,1.063,0.676,2.012C26.613,80.273,26.539,80.681,26.402,81.013z"/>
		<path d="M36.232,86.937l-0.043-1.372c-0.021-0.982-0.185-1.701-0.493-2.166c-0.316-0.462-0.862-0.726-1.645-0.801v-0.034
			c0.424-0.082,0.775-0.22,1.063-0.425c0.287-0.198,0.518-0.438,0.689-0.712c0.178-0.28,0.308-0.603,0.381-0.951
			c0.081-0.355,0.13-0.715,0.13-1.095c0-0.989-0.281-1.767-0.827-2.313c-0.547-0.551-1.357-0.821-2.421-0.821h-3.737v12.524h1.123
			v-5.715h2.12c0.508,0,0.917,0.045,1.233,0.141c0.315,0.092,0.566,0.257,0.746,0.482c0.178,0.226,0.308,0.527,0.375,0.903
			c0.066,0.38,0.116,0.839,0.137,1.39l0.041,1.051c0.009,0.346,0.036,0.66,0.074,0.961c0.042,0.309,0.123,0.575,0.253,0.794h1.314
			c-0.221-0.239-0.365-0.526-0.417-0.849C36.27,87.604,36.239,87.272,36.232,86.937z M32.391,82.104h-1.937v-4.907h2.053
			c1.02,0,1.716,0.219,2.11,0.65c0.381,0.435,0.582,1.033,0.582,1.813c0,0.835-0.247,1.458-0.739,1.852
			C33.965,81.909,33.274,82.104,32.391,82.104z"/>
		<path d="M42,76.037c-1.287,0-2.278,0.514-2.965,1.55c-0.689,1.034-1.041,2.677-1.041,4.922c0,2.251,0.351,3.887,1.041,4.921
			c0.685,1.036,1.679,1.554,2.965,1.554c1.278,0,2.26-0.518,2.957-1.554c0.698-1.034,1.049-2.677,1.049-4.921
			c0-2.245-0.351-3.888-1.049-4.922C44.261,76.554,43.278,76.037,42,76.037z M44.678,85.092c-0.13,0.702-0.323,1.27-0.568,1.708
			c-0.247,0.438-0.548,0.753-0.905,0.948c-0.365,0.191-0.76,0.29-1.205,0.29s-0.842-0.099-1.2-0.29
			c-0.364-0.195-0.662-0.511-0.903-0.948c-0.245-0.438-0.438-1.006-0.575-1.708c-0.13-0.705-0.2-1.563-0.2-2.58
			s0.07-1.875,0.2-2.577c0.137-0.705,0.331-1.27,0.575-1.711c0.238-0.438,0.539-0.753,0.903-0.951
			c0.358-0.188,0.755-0.291,1.2-0.291s0.84,0.103,1.205,0.291c0.357,0.198,0.659,0.514,0.905,0.951
			c0.245,0.441,0.438,1.006,0.568,1.711c0.135,0.702,0.199,1.561,0.199,2.577S44.813,84.387,44.678,85.092z"/>
		<path d="M54.517,77.844c-0.349-0.523-0.806-0.924-1.395-1.194c-0.582-0.267-1.328-0.4-2.247-0.4h-3.017v12.525h3.017
			c0.918,0,1.665-0.134,2.247-0.404c0.588-0.263,1.049-0.66,1.395-1.194c0.351-0.52,0.582-1.181,0.711-1.964
			c0.123-0.787,0.193-1.684,0.193-2.703c0-1.021-0.07-1.917-0.193-2.704C55.099,79.028,54.868,78.367,54.517,77.844z M54.101,85.075
			c-0.137,0.674-0.344,1.222-0.631,1.632c-0.281,0.407-0.645,0.695-1.083,0.866c-0.445,0.168-0.97,0.253-1.58,0.253h-1.826V77.19
			h1.826c0.609,0,1.135,0.089,1.58,0.26c0.438,0.164,0.802,0.459,1.083,0.862c0.288,0.411,0.495,0.958,0.631,1.643
			c0.137,0.691,0.199,1.544,0.199,2.57C54.3,83.545,54.238,84.394,54.101,85.075z"/>
		<path d="M63.141,85.249c0,1.858-0.821,2.793-2.457,2.793s-2.455-0.935-2.455-2.793v-9h-1.121v9.018
			c0,1.321,0.308,2.272,0.926,2.848c0.616,0.581,1.499,0.869,2.657,0.869c1.156,0,2.047-0.288,2.655-0.869
			c0.616-0.575,0.925-1.53,0.925-2.848v-9.018h-1.123v9H63.141z"/>
		<path d="M71.806,87.107c-0.432,0.623-1.047,0.935-1.852,0.935c-0.444,0-0.849-0.1-1.208-0.291
			c-0.355-0.198-0.657-0.514-0.903-0.951c-0.243-0.438-0.438-1.006-0.568-1.704c-0.137-0.705-0.205-1.564-0.205-2.581
			c0-1.016,0.068-1.875,0.205-2.58c0.131-0.697,0.325-1.266,0.568-1.707c0.246-0.438,0.548-0.757,0.903-0.951
			c0.359-0.188,0.764-0.291,1.208-0.291c0.805,0,1.414,0.273,1.838,0.821c0.418,0.54,0.633,1.238,0.633,2.094h1.119
			c0-0.513-0.062-1.006-0.198-1.475c-0.137-0.466-0.349-0.88-0.644-1.229c-0.287-0.353-0.664-0.637-1.122-0.842
			c-0.452-0.212-0.999-0.315-1.629-0.315c-1.287,0-2.279,0.514-2.971,1.547c-0.691,1.041-1.033,2.684-1.033,4.925
			c0,2.248,0.342,3.884,1.033,4.921s1.681,1.551,2.971,1.551c1.136,0,2.012-0.377,2.648-1.137c0.63-0.76,0.985-1.865,1.067-3.319
			h-1.115C72.49,85.63,72.243,86.491,71.806,87.107z"/>
		<polygon points="74.283,77.19 77.514,77.19 77.514,88.774 78.637,88.774 78.637,77.19 81.867,77.19 81.867,76.249 74.283,76.249 
					"/>
		<path d="M88.331,82.614c-0.455-0.243-0.941-0.441-1.468-0.599c-0.523-0.15-1.01-0.329-1.465-0.53
			c-0.452-0.202-0.825-0.476-1.119-0.818c-0.301-0.339-0.444-0.811-0.444-1.438c0-0.314,0.051-0.608,0.157-0.876
			c0.099-0.267,0.253-0.506,0.458-0.704c0.195-0.213,0.438-0.367,0.732-0.486c0.288-0.116,0.641-0.182,1.014-0.182
			c0.776,0,1.352,0.223,1.704,0.664c0.366,0.435,0.544,1.04,0.544,1.813h1.122c0-1.133-0.273-1.988-0.828-2.563
			c-0.544-0.574-1.406-0.855-2.569-0.855c-0.555,0-1.041,0.082-1.465,0.24c-0.432,0.171-0.798,0.39-1.092,0.678
			c-0.287,0.287-0.51,0.636-0.668,1.043c-0.157,0.411-0.229,0.863-0.229,1.353c0,0.574,0.078,1.054,0.256,1.42
			c0.172,0.373,0.404,0.685,0.682,0.935c0.28,0.246,0.605,0.444,0.972,0.602c0.37,0.161,0.739,0.302,1.116,0.425
			c0.376,0.123,0.745,0.246,1.115,0.376c0.366,0.127,0.691,0.288,0.972,0.486c0.277,0.205,0.51,0.451,0.681,0.746
			c0.179,0.301,0.261,0.685,0.261,1.149c0,0.883-0.247,1.53-0.75,1.934c-0.492,0.407-1.14,0.62-1.95,0.62
			c-0.849,0-1.472-0.24-1.883-0.732c-0.403-0.486-0.615-1.13-0.615-1.944v-0.472h-1.109v0.369c0,1.238,0.309,2.17,0.935,2.789
			c0.616,0.619,1.53,0.935,2.714,0.935c0.575,0,1.092-0.079,1.554-0.229c0.458-0.15,0.855-0.384,1.19-0.691
			c0.336-0.308,0.589-0.688,0.773-1.153c0.182-0.452,0.274-0.985,0.274-1.595c0-0.719-0.151-1.287-0.452-1.704
			C89.156,83.192,88.783,82.864,88.331,82.614z"/>
	</g>
</g>
<g>
</g>
<g>
</g>
<g>
</g>
<g>
</g>
<g>
</g>
<g>
</g>
<g>
</g>
<g>
</g>
<g>
</g>
<g>
</g>
<g>
</g>
<g>
</g>
<g>
</g>
<g>
</g>
<g>
</g>
</svg>
