<svg height="512" viewBox="0 0 56 56" width="512" xmlns="http://www.w3.org/2000/svg" fill="#fff"><g id="047---Star-Anise"><path id="Shape" d="m24.08 31.07c-3.1869719 1.6402019-6.6233867 2.7417468-10.17 3.26-.8187204.505115-1.6037115 1.0629598-2.35 1.67-3.11452649 2.4141477-4.90227124 6.1602518-4.82 10.1 3.8742653.7830747 7.891867-.2897656 10.86-2.9 2.083258-1.7624411 3.8605879-3.8573928 5.26-6.2.9156745-1.5158922 1.7050066-3.1045904 2.36-4.75-.4411943-.3292296-.8261751-.7277186-1.14-1.18zm-3.42 4.45c-.05.16-1.24 3.93-3.51 5.9-.9900237.8941493-2.1356414 1.5991448-3.38 2.08-.4710393.1743602-.9678463.2689901-1.47.28-.6235038.0285321-1.2276461-.2204478-1.65-.68-.37-.42-.85-1.39 0-3.14.6477629-1.1641887 1.501625-2.2010213 2.52-3.06 2.27-2 6.17-2.64 6.33-2.66.3431958-.0575686.6916411.0674172.92.33.2402904.2530928.331252.6131491.24.95z"/><path id="Shape" d="m11 29c1.3303364-.0761304 2.6322519-.4160561 3.83-1-1.1994751-.5792648-2.5004444-.9189435-3.83-1-2.35 0-3.72.68-4 1 .25.33 1.62 1 4 1z"/><path id="Shape" d="m14.52 38.41c-1.77 1.54-2.36 3-2.34 3.36.42.08 1.89-.31 3.65-1.85.9537749-.9305383 1.7119565-2.0423115 2.23-3.27-1.283304.3506713-2.485798.9485214-3.54 1.76z"/><path id="Shape" d="m13.43 32.38c3.4047952-.4758858 6.7046299-1.523989 9.76-3.1-.1185108-.4166353-.1823788-.8469045-.19-1.28.0067446-.170827.0234396-.3411157.05-.51-3.2505273-.8536079-6.3501956-2.2027562-9.19-4-1.1066372-.1951233-2.2265606-.3054441-3.35-.33-3.94565941-.1608675-7.74408131 1.511324-10.29 4.53 2.43351269 3.1117012 6.18003124 4.9091424 10.13 4.86 1.0292735.0104765 2.0581317-.0463112 3.08-.17zm-8.43-4.38c0-2.06 3.11-3 6-3s6.38 2.06 6.53 2.15c.2929855.1831155.4706914.5044985.47.85.0006914.3455015-.1770145.6668845-.47.85-.15.09-3.53 2.15-6.53 2.15-1.33193966.0218746-2.65677648-.1983668-3.91-.65-1.82-.73-2.09-1.78-2.09-2.35z"/><path id="Shape" d="m29 11c0-2.35-.67-3.72-1-4-.33.25-1 1.62-1 4 .0761304 1.3303364.4160561 2.6322519 1 3.83.5839439-1.1977481.9238696-2.4996636 1-3.83z"/><path id="Shape" d="m18.4 19c-.4796285-1.2428345-1.1962495-2.3805976-2.11-3.35-1.71-1.6-3.17-2.06-3.58-2 0 .42.5 1.85 2.21 3.45 1.0251388.8540039 2.2072946 1.4994338 3.48 1.9z"/><path id="Shape" d="m24.24 16.87c.630675 2.1818908 1.4992217 4.2878652 2.59 6.28.3827153-.0959895.7754476-.1463398 1.17-.15.2583748.006318.5158448.0330681.77.08.7768233-2.2119008 1.7822643-4.3367328 3-6.34.5967457-2.074899.9095917-4.2210894.93-6.38.0970254-3.93013849-1.6401377-7.68167156-4.7-10.15-3.0799416 2.45350062-4.824938 6.21394932-4.71 10.15.018176 2.1802041.337873 4.3474129.95 6.44.001277.0233159.001277.0466841 0 .07zm3.76-11.87c2.06 0 3 3.11 3 6s-2.06 6.38-2.15 6.53c-.1823393.2942169-.5038624.4732173-.85.4732173s-.6676607-.1790004-.85-.4732173c-.09-.15-2.15-3.53-2.15-6.53s.94-6 3-6z"/><path id="Shape" d="m28 25c-.4024859-.0026356-.8010553.0791222-1.17.24-1.10626.4712648-1.8242449 1.5575435-1.8242449 2.76s.7179849 2.2887352 1.8242449 2.76c.3691231.1603139.7675721.242047 1.17.24 1.6568542 0 3-1.3431458 3-3s-1.3431458-3-3-3z"/><path id="Shape" d="m12 19.55c.8633644.7979716 1.7934232 1.5206073 2.78 2.16 2.7381839 1.7554728 5.7393809 3.0619557 8.89 3.87.3285467-.6134852.781542-1.15163 1.33-1.58-1.1188757-2.0736357-2.0171249-4.2589285-2.68-6.52-1.114408-1.776419-2.4594653-3.3972131-4-4.82-2.83588-2.71650775-6.7617964-3.98091086-10.65-3.43-.26645829 3.930613 1.33868372 7.7562633 4.33 10.32zm-.75-7.29c1.42-1.51 4.32-.06 6.43 1.92 2.2 2.06 3.24 5.87 3.29 6 .0826857.3063299.015089.6337228-.1821587.882255-.1972478.2485322-.5007376.3887082-.8178413.377745h-.2c-.16 0-4-.84-6.23-2.9s-3.72-4.78-2.31-6.28z"/><path id="Shape" d="m32 25c2.928943-1.6149204 6.0894216-2.7684782 9.37-3.42.9229593-.6144713 1.8017737-1.2927958 2.63-2.03 2.9788652-2.570654 4.5722277-6.3947239 4.3-10.32-3.9080795-.58617219-7.8657099.68618748-10.7 3.44-1.5883078 1.4692136-2.9647987 3.1519653-4.09 5v.06c-1.1554147 1.8943553-2.1073692 3.905527-2.84 6 .5166246.3392469.9672827.7695746 1.33 1.27zm3.1-4.78c0-.16 1.12-4 3.32-6 .9613198-.92447 2.0874384-1.6605174 3.32-2.17 1.83-.71 2.74-.12 3.13.29s.89 1.37 0 3.14c-.6075638 1.1860369-1.4278445 2.2503681-2.42 3.14-2.21 2.05-6.08 2.82-6.25 2.86h-.19c-.2771651-.0008916-.5415282-.1167768-.73-.32-.1987983-.2548911-.2621262-.5901565-.17-.9z"/><path id="Shape" d="m44.44 36c-.7959099-.651846-1.6344402-1.2498418-2.51-1.79-2.9827133-1.7638691-6.2418645-3.0114073-9.64-3.69-.3279673.5737365-.7664181 1.0767654-1.29 1.48.8667576 1.6047153 1.6024831 3.2768188 2.2 5 1.3814612 2.3379458 3.1382699 4.4326023 5.2 6.2 2.9758496 2.5955313 6.9876989 3.6631412 10.86 2.89.0790841-3.9362562-1.7083339-7.6779674-4.82-10.09zm1 7c-.4238113.4634895-1.0328222.7129639-1.66.68-.4978283-.0127463-.9905383-.1038639-1.46-.27-1.2419607-.476638-2.3871648-1.1746026-3.38-2.06-2.28-2-3.49-5.73-3.54-5.89-.12108-.3448361-.0443954-.728259.2-1 .2242121-.2629527.5682958-.3915115.91-.34.17 0 4.07.67 6.35 2.64s3.9 4.71 2.55 6.24z"/><path id="Shape" d="m45 27c-1.3263967.0808147-2.6241393.4205379-3.82 1 1.1947681.5824166 2.4931081.9222962 3.82 1 2.33 0 3.7-.67 3.95-1-.25-.33-1.62-1-4-1z"/><path id="Shape" d="m41.52 38.35c-1.049971-.8018513-2.2453194-1.3927337-3.52-1.74.5297094 1.2208077 1.2903169 2.3277632 2.24 3.26 1.78 1.53 3.26 1.92 3.67 1.84-.02-.42-.61-1.82-2.39-3.36z"/><path id="Shape" d="m45.49 23.18c-1.1837925.0277548-2.3638058.1447533-3.53.35-3.193678.6159615-6.2688659 1.7366666-9.11 3.32.096007.3759174.14637.7620334.15 1.15-.0095992.2075414-.0296245.4144692-.06.62 3.4562798.7152705 6.7730181 1.9886008 9.82 3.77.9588021.1164274 1.9242054.1698754 2.89.16 3.9503113.0506934 7.6974827-1.7470611 10.13-4.86-2.5470672-3.0149695-6.3468328-4.6803673-10.29-4.51zm-.49 7.82c-3 0-6.38-2.08-6.52-2.16-.293812-.1788194-.4751063-.4960845-.48-.84.0014496-.3474864.1831844-.6693085.48-.85.14-.06 3.52-2.15 6.52-2.15 1.330404-.0217914 2.6531471.2054491 3.9.67 1.82.73 2.09 1.78 2.09 2.34.01 2.1-3.09 2.99-5.99 2.99z"/><path id="Shape" d="m31.32 37.78c-.5709483-1.6951077-1.2869311-3.3378532-2.14-4.91-.3868855.0893922-.782933.1330245-1.18.13-.2986812-.0047219-.5964202-.0348304-.89-.09-.682507 1.7308609-1.505242 3.4030866-2.46 5-.877086 2.487988-1.3431852 5.1021962-1.38 7.74-.100628 3.9318896 1.6508129 7.6828612 4.73 10.13 3.0720675-2.4544022 4.8125853-6.2094767 4.7-10.14-.0192514-2.6752933-.4856821-5.32854-1.38-7.85zm-3.19 13.22c-2.05 0-3-3.1-3-6s2-6.4 2.11-6.54c.1806915-.2968156.5025136-.4785504.85-.48.3455015-.0006914.6668845.1770145.85.47.06.16 2.14 3.55 2.16 6.55s-.9 6-2.97 6z"/><path id="Shape" d="m27.1 45c0 2.34.69 3.71 1 4 .33-.26 1-1.63 1-4-.0815805-1.3262742-.4212655-2.6238708-1-3.82-.5839209 1.1942103-.9238808 2.4928573-1 3.82z"/><path id="Shape" d="m43.39 13.75h-.09c-1.3502861.2834026-2.5778067.9828445-3.51 2-.9205537.9622094-1.6411225 2.0974452-2.12 3.34 1.2728108-.3857163 2.4558939-1.0214536 3.48-1.87 1.72-1.63 2.27-3.06 2.24-3.47z"/></g></svg>